<mxfile host="app.diagrams.net" modified="2023-05-31T07:30:21.137Z" agent="Mozilla/5.0 (Macintosh; Intel Mac OS X 10_15_7) AppleWebKit/537.36 (KHTML, like Gecko) Chrome/113.0.0.0 Safari/537.36" version="21.3.6" etag="yDwVmCAty-b1pgyGni8n" type="github">
  <diagram name="第 1 页" id="9kjvt8S13lE-7F2bK-af">
    <mxGraphModel>
      <root>
        <mxCell id="0" />
        <mxCell id="1" parent="0" />
      </root>
    </mxGraphModel>
  </diagram>
</mxfile>
